<?xml version="1.0" standalone="no"?>
<!DOCTYPE svg PUBLIC "-//W3C//DTD SVG 20010904//EN"
 "http://www.w3.org/TR/2001/REC-SVG-20010904/DTD/svg10.dtd">
<svg version="1.0" xmlns="http://www.w3.org/2000/svg"
 width="356.000000pt" height="352.000000pt" viewBox="0 0 356.000000 352.000000"
 preserveAspectRatio="xMidYMid meet">
<metadata>
Created by potrace 1.11, written by Peter Selinger 2001-2013
</metadata>
<g transform="translate(0.000000,352.000000) scale(0.100000,-0.100000)"
fill="#000000" stroke="none">
<path d="M2041 3390 c-5 0 -12 -7 -15 -16 -3 -9 -6 -385 -6 -835 0 -544 -3
-818 -10 -814 -5 3 -10 -2 -10 -13 0 -10 -8 -26 -18 -35 -10 -10 -24 -17 -30
-17 -7 0 -12 -4 -12 -10 0 -6 -50 -10 -130 -10 -130 0 -130 0 -130 -650 0
-650 0 -650 199 -650 168 0 200 2 205 15 4 11 21 15 61 15 39 0 55 4 55 13 0
8 15 14 41 16 23 1 48 8 56 16 8 8 28 15 44 15 16 0 29 4 29 9 0 5 12 12 27
16 15 3 30 11 33 16 3 4 17 10 30 12 13 2 26 9 28 15 2 7 15 12 28 12 15 0 24
6 24 15 0 10 10 15 30 15 20 0 30 5 30 15 0 8 7 15 15 15 8 0 15 7 15 15 0 9
9 15 25 15 14 0 28 7 31 15 4 8 12 15 20 15 8 0 14 7 14 15 0 8 5 15 10 15 6
0 27 15 46 33 20 17 49 44 65 59 16 15 29 32 29 38 0 5 5 10 10 10 6 0 24 14
40 30 17 17 30 37 30 45 0 8 7 15 15 15 8 0 15 7 15 15 0 8 7 15 15 15 8 0 15
7 15 15 0 8 4 15 10 15 5 0 12 11 16 25 3 14 10 25 15 25 5 0 9 7 9 15 0 8 7
15 15 15 9 0 15 9 15 25 0 14 7 28 15 31 8 4 15 17 15 30 0 15 6 24 15 24 9 0
15 9 15 25 0 18 4 23 15 18 9 -3 15 -2 14 3 -1 5 -1 24 0 42 1 21 6 32 16 32
10 0 15 10 15 29 0 16 5 31 11 33 5 2 13 22 16 46 3 23 9 42 14 42 4 0 11 25
14 55 4 30 11 55 15 55 4 0 10 39 14 88 3 48 11 89 16 90 6 2 10 70 10 167 0
97 -4 165 -10 167 -5 2 -13 42 -16 91 -4 48 -10 87 -14 87 -4 0 -10 19 -13 42
-3 24 -11 44 -16 46 -6 2 -11 21 -11 42 0 21 -6 43 -15 50 -8 7 -15 28 -15 46
0 24 -5 34 -15 34 -10 0 -15 10 -15 30 0 20 -5 30 -15 30 -10 0 -15 10 -15 30
0 20 -5 30 -15 30 -10 0 -15 10 -15 30 0 20 -5 30 -15 30 -9 0 -15 9 -15 25 0
16 -6 25 -15 25 -8 0 -15 7 -15 15 0 8 -4 15 -9 15 -5 0 -12 14 -16 30 -4 17
-13 30 -21 30 -8 0 -14 7 -14 15 0 8 -4 15 -10 15 -5 0 -10 7 -10 15 0 8 -7
15 -15 15 -8 0 -15 7 -15 15 0 8 -7 15 -15 15 -8 0 -15 7 -15 15 0 9 -7 18
-15 21 -8 4 -15 12 -15 18 0 7 -11 19 -25 26 -16 9 -21 16 -14 20 6 4 0 10
-15 14 -14 3 -26 11 -26 16 0 6 -7 10 -15 10 -8 0 -15 7 -15 15 0 8 -7 15 -15
15 -8 0 -15 7 -15 15 0 8 -9 15 -20 15 -11 0 -19 6 -18 13 2 7 -9 13 -24 15
-16 2 -28 9 -28 18 0 8 -7 14 -15 14 -8 0 -15 4 -15 9 0 5 -11 12 -25 15 -14
4 -25 11 -25 16 0 6 -7 10 -15 10 -9 0 -18 7 -21 15 -4 8 -17 15 -30 15 -14 0
-27 7 -30 15 -4 8 -17 15 -30 15 -15 0 -24 6 -24 15 0 10 -10 15 -34 15 -21 0
-36 6 -40 15 -3 9 -18 15 -36 15 -17 0 -38 7 -46 15 -9 9 -34 15 -60 15 -32 0
-44 4 -44 15 0 12 -13 15 -60 15 -33 0 -60 4 -60 10 0 6 -4 10 -9 10z m-16
-1988 c11 -2 22 -9 23 -13 2 -5 17 -9 33 -9 19 0 29 -5 29 -15 0 -8 7 -15 15
-15 9 0 15 -9 15 -25 0 -14 7 -28 15 -31 11 -5 15 -21 15 -60 0 -39 -4 -56
-15 -60 -8 -4 -15 -18 -16 -33 0 -14 -3 -21 -6 -14 -3 8 -12 4 -27 -12 -21
-23 -31 -25 -110 -25 -70 0 -86 3 -86 15 0 8 -7 15 -15 15 -8 0 -15 9 -15 21
0 11 -4 18 -9 15 -5 -3 -12 1 -15 10 -3 9 -6 47 -6 85 0 55 3 69 15 69 8 0 15
7 15 15 0 8 7 15 15 15 8 0 15 7 15 15 0 10 10 15 31 15 16 0 28 4 24 9 -3 5
5 11 17 14 13 2 32 2 43 -1z m438 -1 c9 -2 17 -7 17 -12 0 -5 9 -9 19 -9 11 0
26 -7 35 -15 8 -8 19 -15 24 -15 6 0 13 -13 17 -30 4 -16 11 -30 16 -30 5 0 9
-25 9 -55 0 -30 -4 -55 -10 -55 -5 0 -10 -5 -10 -11 0 -7 -15 -27 -34 -45 -26
-25 -43 -33 -77 -35 -24 -1 -63 -1 -86 0 -31 1 -43 5 -43 16 0 8 -7 15 -15 15
-8 0 -15 6 -15 14 0 8 -6 16 -12 19 -9 2 -13 28 -13 82 0 54 4 80 13 83 6 2
12 10 12 18 0 8 7 14 15 14 8 0 15 7 15 15 0 8 9 15 20 15 11 0 20 4 20 9 0 6
15 11 33 13 17 2 40 1 50 -1z m434 1 c13 -2 23 -8 23 -13 0 -5 7 -9 15 -9 8 0
15 -5 15 -11 0 -5 4 -8 9 -4 5 3 12 -4 16 -15 4 -11 10 -18 15 -15 5 3 12 -6
16 -20 3 -14 10 -25 15 -25 5 0 9 -20 9 -45 0 -25 -4 -45 -10 -45 -5 0 -10
-10 -10 -21 0 -12 -16 -37 -35 -55 -32 -32 -37 -34 -109 -34 -73 0 -76 1 -112
36 -35 36 -36 40 -37 109 0 70 1 74 35 109 19 20 40 36 47 36 6 0 11 5 11 12
0 6 3 9 6 6 3 -3 17 -3 32 1 15 4 37 5 49 3z"/>
</g>
</svg>
