<?xml version="1.0" encoding="UTF-8" standalone="no"?>
<svg
   xmlns:dc="http://purl.org/dc/elements/1.1/"
   xmlns:cc="http://creativecommons.org/ns#"
   xmlns:rdf="http://www.w3.org/1999/02/22-rdf-syntax-ns#"
   xmlns:svg="http://www.w3.org/2000/svg"
   xmlns="http://www.w3.org/2000/svg"
   xmlns:sodipodi="http://sodipodi.sourceforge.net/DTD/sodipodi-0.dtd"
   xmlns:inkscape="http://www.inkscape.org/namespaces/inkscape"
   version="1.0"
   width="260"
   height="280"
   viewBox="0 0 208 224"
   preserveAspectRatio="xMidYMid meet"
   id="svg2997"
   inkscape:version="0.48.5 r10040"
   sodipodi:docname="rai.svg">
  <defs
     id="defs3007" />
  <sodipodi:namedview
     pagecolor="#ffffff"
     bordercolor="#666666"
     borderopacity="1"
     objecttolerance="10"
     gridtolerance="10"
     guidetolerance="10"
     inkscape:pageopacity="0"
     inkscape:pageshadow="2"
     inkscape:window-width="1920"
     inkscape:window-height="1017"
     id="namedview3005"
     showgrid="false"
     inkscape:zoom="0.83911111"
     inkscape:cx="-53.628178"
     inkscape:cy="140.625"
     inkscape:window-x="-4"
     inkscape:window-y="-4"
     inkscape:window-maximized="1"
     inkscape:current-layer="svg2997" />
  <metadata
     id="metadata2999">
Created by potrace 1.11, written by Peter Selinger 2001-2013
<rdf:RDF>
  <cc:Work
     rdf:about="">
    <dc:format>image/svg+xml</dc:format>
    <dc:type
       rdf:resource="http://purl.org/dc/dcmitype/StillImage" />
  </cc:Work>
</rdf:RDF>
</metadata>
  <g
     transform="matrix(0.16410256,0,0,-0.14639701,-101.94871,277.3705)"
     id="g3001"
     style="fill:#12b300;stroke:none;fill-opacity:1">
    <path
       d="m 670,1130 0,-710 100,0 100,0 0,301 0,301 193,-4 c 218,-3 231,-7 267,-78 11,-21 20,-42 20,-45 0,-3 -58,-5 -130,-5 l -130,0 0,-50 0,-50 135,0 135,0 0,-29 c 0,-16 3,-43 6,-60 l 7,-31 -142,0 -141,0 0,-50 0,-50 139,0 139,0 8,-53 c 5,-28 9,-56 10,-62 1,-5 2,-16 3,-22 1,-17 231,-19 231,-2 0,6 -11,24 -25,41 -14,16 -25,38 -25,48 0,10 -3,25 -6,34 -5,14 10,16 135,16 l 141,0 0,50 0,50 -140,0 -140,0 0,60 0,60 140,0 140,0 0,50 0,50 -145,0 c -134,0 -145,1 -145,18 0,51 -33,126 -74,166 l -42,43 33,34 c 19,19 49,63 66,99 31,64 32,68 32,205 0,133 -1,143 -28,197 -48,97 -134,159 -248,178 -35,5 -189,10 -341,10 l -278,0 0,-710 z m 609,520 c 22,-11 50,-36 62,-57 22,-34 24,-49 24,-159 0,-115 -1,-122 -27,-162 -47,-71 -67,-77 -280,-80 l -188,-4 0,241 0,241 185,0 c 165,0 190,-2 224,-20 z"
       id="path3003"
       inkscape:connector-curvature="0"
       style="fill:#12b300;fill-opacity:1" />
  </g>
</svg>
