<?xml version="1.0" standalone="no"?>
<!DOCTYPE svg PUBLIC "-//W3C//DTD SVG 20010904//EN"
 "http://www.w3.org/TR/2001/REC-SVG-20010904/DTD/svg10.dtd">
<svg version="1.0" xmlns="http://www.w3.org/2000/svg"
 width="184.000000pt" height="244.000000pt" viewBox="0 0 184.000000 244.000000"
 preserveAspectRatio="xMidYMid meet">
<metadata>
Created by potrace 1.11, written by Peter Selinger 2001-2013
</metadata>
<g transform="translate(0.000000,244.000000) scale(0.100000,-0.100000)"
fill="#000000" stroke="none">
<path d="M380 1715 l0 -555 -95 0 -95 0 0 -105 0 -105 95 0 95 0 0 -70 0 -70
-95 0 -95 0 0 -105 0 -105 95 0 95 0 0 -240 0 -240 150 0 150 0 0 240 0 240
405 0 405 0 0 105 0 105 -405 0 -405 0 0 70 0 70 183 0 c219 0 326 19 438 75
205 103 325 276 349 506 35 323 -118 584 -405 692 -111 42 -168 47 -527 47
l-338 0 0 -555z m692 295 c35 -11 85 -34 111 -51 261 -173 219 -615 -72 -753
-65 -31 -68 -31 -248 -34 l-183 -4 0 431 0 431 164 0 c135 0 175 -3 228 -20z"/>
</g>
</svg>
